<svg width="27" height="27" viewBox="0 0 27 27" fill="none" xmlns="http://www.w3.org/2000/svg">
<rect width="27" height="27" fill="white"/>
<path d="M16.9298 5.008V5.488C16.4018 5.52 16.0018 5.616 15.7298 5.776C15.4578 5.936 15.2738 6.2 15.1778 6.568C15.0818 6.92 15.0338 7.424 15.0338 8.08V15.016C15.0338 16.104 14.9618 17.072 14.8178 17.92C14.6738 18.768 14.4178 19.496 14.0498 20.104C13.6498 20.776 13.0578 21.32 12.2738 21.736C11.5058 22.136 10.5858 22.336 9.51384 22.336C8.74584 22.336 8.00184 22.248 7.28184 22.072C6.56184 21.896 5.92984 21.56 5.38584 21.064C4.90584 20.632 4.52984 20.16 4.25784 19.648C3.98584 19.136 3.80184 18.52 3.70584 17.8C3.60984 17.064 3.56184 16.16 3.56184 15.088V7.552C3.56184 6.96 3.51384 6.528 3.41784 6.256C3.33784 5.968 3.16184 5.776 2.88984 5.68C2.61784 5.568 2.20984 5.504 1.66584 5.488V5.008C2.03384 5.024 2.50584 5.04 3.08184 5.056C3.67384 5.072 4.30584 5.08 4.97784 5.08C5.58584 5.08 6.18584 5.072 6.77784 5.056C7.38584 5.04 7.88184 5.024 8.26584 5.008V5.488C7.72184 5.504 7.30584 5.568 7.01784 5.68C6.74584 5.776 6.56184 5.968 6.46584 6.256C6.36984 6.528 6.32184 6.96 6.32184 7.552V15.856C6.32184 16.672 6.36184 17.424 6.44184 18.112C6.53784 18.8 6.70584 19.4 6.94584 19.912C7.20184 20.408 7.56984 20.8 8.04984 21.088C8.54584 21.36 9.18584 21.496 9.96984 21.496C11.1538 21.496 12.0658 21.232 12.7058 20.704C13.3618 20.16 13.8178 19.424 14.0738 18.496C14.3458 17.552 14.4818 16.48 14.4818 15.28V8.176C14.4818 7.488 14.4178 6.96 14.2898 6.592C14.1618 6.224 13.9378 5.96 13.6178 5.8C13.2978 5.624 12.8418 5.52 12.2498 5.488V5.008C12.5538 5.024 12.9458 5.04 13.4258 5.056C13.9058 5.072 14.3458 5.08 14.7458 5.08C15.1618 5.08 15.5618 5.072 15.9458 5.056C16.3458 5.04 16.6738 5.024 16.9298 5.008ZM24.9841 5.008V5.488C24.4561 5.504 24.0561 5.568 23.7841 5.68C23.5121 5.776 23.3281 5.968 23.2321 6.256C23.1361 6.528 23.0881 6.96 23.0881 7.552V19.456C23.0881 20.032 23.1361 20.464 23.2321 20.752C23.3281 21.04 23.5121 21.232 23.7841 21.328C24.0561 21.424 24.4561 21.488 24.9841 21.52V22C24.6001 21.968 24.1121 21.952 23.5201 21.952C22.9441 21.936 22.3521 21.928 21.7441 21.928C21.0721 21.928 20.4401 21.936 19.8481 21.952C19.2721 21.952 18.8001 21.968 18.4321 22V21.52C18.9761 21.488 19.3841 21.424 19.6561 21.328C19.9281 21.232 20.1041 21.04 20.1841 20.752C20.2801 20.464 20.3281 20.032 20.3281 19.456V7.552C20.3281 6.96 20.2801 6.528 20.1841 6.256C20.1041 5.968 19.9201 5.776 19.6321 5.68C19.3601 5.568 18.9601 5.504 18.4321 5.488V5.008C18.8001 5.024 19.2721 5.04 19.8481 5.056C20.4401 5.072 21.0721 5.08 21.7441 5.08C22.3521 5.08 22.9441 5.072 23.5201 5.056C24.1121 5.04 24.6001 5.024 24.9841 5.008Z" fill="url(#paint0_linear_1_2)"/>
<g clip-path="url(#clip0_1_2)">
<rect width="25" height="4" transform="translate(1 12)" fill="white"/>
<path d="M5.40755 13.5234C5.39264 13.4716 5.37169 13.4258 5.3447 13.386C5.31771 13.3455 5.28469 13.3114 5.24562 13.2837C5.20727 13.2553 5.16324 13.2337 5.11352 13.2188C5.06451 13.2038 5.01018 13.1964 4.95052 13.1964C4.83902 13.1964 4.74101 13.2241 4.65649 13.2795C4.57268 13.3349 4.50734 13.4155 4.46047 13.5213C4.41359 13.6264 4.39015 13.755 4.39015 13.907C4.39015 14.0589 4.41324 14.1882 4.4594 14.2947C4.50557 14.4013 4.57091 14.4826 4.65542 14.5387C4.73994 14.5941 4.83973 14.6218 4.95478 14.6218C5.05919 14.6218 5.14832 14.6033 5.22219 14.5664C5.29676 14.5288 5.35358 14.4759 5.39264 14.4077C5.43241 14.3395 5.4523 14.2589 5.4523 14.1658L5.54605 14.1797H4.98355V13.8324H5.89655V14.1072C5.89655 14.299 5.85606 14.4638 5.7751 14.6016C5.69413 14.7386 5.58263 14.8445 5.44058 14.919C5.29853 14.9929 5.13589 15.0298 4.95265 15.0298C4.74811 15.0298 4.56842 14.9847 4.41359 14.8945C4.25876 14.8036 4.13802 14.6747 4.05138 14.5078C3.96544 14.3402 3.92247 14.1413 3.92247 13.9112C3.92247 13.7344 3.94804 13.5767 3.99917 13.4382C4.05102 13.299 4.12346 13.1811 4.2165 13.0845C4.30954 12.9879 4.41785 12.9144 4.54143 12.864C4.66501 12.8136 4.79889 12.7884 4.94307 12.7884C5.06665 12.7884 5.1817 12.8065 5.28824 12.8427C5.39477 12.8782 5.48923 12.9286 5.57162 12.994C5.65471 13.0593 5.72254 13.1371 5.7751 13.2273C5.82765 13.3168 5.86139 13.4155 5.8763 13.5234H5.40755ZM7.45173 15H6.95741L7.71061 12.8182H8.30507L9.0572 15H8.56288L8.01636 13.3168H7.99932L7.45173 15ZM7.42084 14.1424H8.58845V14.5025H7.42084V14.1424ZM10.2198 15V12.8182H10.6811V14.6197H11.6165V15H10.2198ZM12.822 15V12.8182H13.2832V14.6197H14.2186V15H12.822ZM15.4241 15V12.8182H16.8943V13.1985H15.8854V13.7184H16.8186V14.0987H15.8854V14.6197H16.8985V15H15.4241ZM18.161 15V12.8182H19.0218C19.1866 12.8182 19.3272 12.8477 19.4437 12.9066C19.5609 12.9648 19.65 13.0476 19.7111 13.1548C19.7729 13.2614 19.8038 13.3867 19.8038 13.5309C19.8038 13.6758 19.7725 13.8004 19.71 13.9048C19.6475 14.0085 19.557 14.0881 19.4384 14.1435C19.3205 14.1989 19.1777 14.2266 19.0101 14.2266H18.4337V13.8558H18.9355C19.0236 13.8558 19.0967 13.8437 19.155 13.8196C19.2132 13.7955 19.2565 13.7592 19.285 13.7109C19.3141 13.6626 19.3286 13.6026 19.3286 13.5309C19.3286 13.4585 19.3141 13.3974 19.285 13.3477C19.2565 13.2979 19.2129 13.2603 19.1539 13.2347C19.0957 13.2085 19.0222 13.1953 18.9334 13.1953H18.6223V15H18.161ZM19.3393 14.0071L19.8815 15H19.3723L18.8418 14.0071H19.3393ZM20.8111 12.8182H21.3278L21.8253 13.7578H21.8466L22.3441 12.8182H22.8608L22.065 14.2287V15H21.6069V14.2287L20.8111 12.8182Z" fill="#149FBB"/>
</g>
<defs>
<linearGradient id="paint0_linear_1_2" x1="1" y1="12.5" x2="26" y2="12.5" gradientUnits="userSpaceOnUse">
<stop stop-color="#0F9159"/>
<stop offset="1" stop-color="#14BB72"/>
</linearGradient>
<clipPath id="clip0_1_2">
<rect width="25" height="4" fill="white" transform="translate(1 12)"/>
</clipPath>
</defs>
</svg>
